<?xml version="1.0" standalone="no"?>
<!DOCTYPE svg PUBLIC "-//W3C//DTD SVG 20010904//EN"
 "http://www.w3.org/TR/2001/REC-SVG-20010904/DTD/svg10.dtd">
<svg version="1.0" xmlns="http://www.w3.org/2000/svg"
 width="856.000000pt" height="854.000000pt" viewBox="0 0 856.000000 854.000000"
 preserveAspectRatio="xMidYMid meet">

<g transform="translate(0.000000,854.000000) scale(0.100000,-0.100000)"
fill="#000000" stroke="none">
<path d="M38 8527 c-12 -4 -26 -13 -30 -20 -4 -7 -8 -128 -8 -269 l0 -257 44
-63 c95 -135 250 -247 406 -292 90 -26 385 -60 507 -59 180 2 278 38 411 153
117 101 177 195 235 370 46 141 44 304 -6 406 -34 70 -49 56 -24 -23 18 -54
22 -93 22 -188 0 -106 -4 -130 -29 -205 -37 -108 -59 -152 -112 -221 -83 -108
-193 -196 -290 -231 -103 -37 -357 -26 -664 28 -59 11 -117 31 -190 65 -109
52 -151 85 -197 153 -15 23 -45 61 -65 85 -36 41 -38 48 -38 112 0 39 4 69 10
69 6 0 10 -4 10 -8 0 -4 9 -8 20 -8 12 0 35 19 58 48 20 26 44 47 53 48 19 0
79 -52 79 -69 0 -6 4 -11 9 -11 5 0 7 9 4 19 -3 10 2 30 11 44 14 21 20 54 29
150 1 9 7 17 14 17 7 0 13 9 13 19 0 11 5 23 11 26 6 4 9 28 8 53 -3 39 0 46
19 53 12 5 22 11 22 14 0 9 -317 2 -342 -8z"/>
<path d="M1361 8511 c12 -16 22 -43 23 -60 1 -18 6 -31 14 -31 6 0 12 -5 12
-11 0 -5 -3 -8 -8 -5 -4 2 -8 -14 -8 -36 -1 -27 1 -36 8 -27 5 9 8 -13 7 -59
-1 -39 1 -75 4 -79 4 -3 7 -16 8 -27 1 -34 28 51 35 109 7 59 -7 134 -37 206
-19 43 -25 49 -51 49 l-29 0 22 -29z"/>
<path d="M1766 8473 c5 -38 9 -124 9 -193 -1 -118 -3 -132 -39 -240 -39 -117
-77 -201 -124 -274 -37 -56 -124 -167 -153 -192 -27 -24 -196 -114 -249 -133
-89 -32 -501 -19 -727 24 -85 16 -262 84 -319 122 -23 16 -69 58 -103 96 -59
65 -61 66 -61 38 0 -23 16 -44 83 -107 75 -71 93 -83 181 -117 139 -53 183
-63 363 -81 87 -9 203 -21 258 -28 206 -23 309 -5 473 84 116 63 129 73 207
178 130 176 231 424 242 598 8 120 -13 292 -34 292 -13 0 -14 -10 -7 -67z"/>
<path d="M1893 8493 c3 -27 11 -86 17 -132 18 -126 9 -205 -44 -375 -26 -81
-45 -151 -42 -154 10 -9 73 138 100 233 31 107 33 190 9 358 -13 86 -21 117
-31 117 -11 0 -13 -11 -9 -47z"/>
<path d="M2020 8528 c0 -7 7 -58 15 -113 26 -177 15 -375 -26 -499 -43 -127
-209 -350 -322 -430 -63 -44 -259 -157 -352 -201 -27 -13 -104 -37 -169 -54
-66 -17 -122 -35 -125 -39 -3 -5 -13 -12 -21 -16 -28 -12 124 5 189 21 81 21
320 138 431 213 187 126 363 362 417 560 35 126 17 570 -23 570 -8 0 -14 -6
-14 -12z"/>
<path d="M2200 8533 c0 -5 7 -43 15 -86 31 -163 13 -425 -40 -582 -13 -38 -22
-71 -20 -74 3 -2 9 7 14 20 5 13 15 38 22 54 14 34 15 40 18 75 1 21 3 22 12
10 9 -12 10 -11 6 7 -4 20 1 31 40 82 2 3 8 0 14 -6 16 -16 39 -5 39 18 0 14
6 18 23 15 12 -3 30 -5 40 -5 9 -1 17 -9 18 -18 0 -15 2 -15 9 2 8 18 9 18 9
2 1 -10 5 -15 11 -12 13 8 22 -33 17 -75 -17 -132 -32 -199 -58 -257 -10 -24
-19 -47 -19 -53 0 -5 -4 -10 -10 -10 -5 0 -7 -7 -4 -15 4 -8 2 -15 -2 -15 -5
0 -15 -15 -23 -32 -38 -87 -176 -268 -280 -366 -46 -43 -237 -169 -321 -212
-25 -13 -104 -42 -176 -66 -103 -33 -158 -45 -255 -54 -68 -7 -128 -16 -134
-21 -5 -6 9 -7 38 -3 42 6 47 5 48 -12 0 -11 0 -404 0 -874 0 -881 3 -1050 23
-1030 13 13 16 1648 2 1811 l-8 106 78 7 c44 4 88 10 99 12 20 5 20 0 20 -568
0 -715 7 -1082 19 -1048 5 14 11 377 13 820 3 437 8 799 13 804 5 5 55 26 112
48 209 79 391 200 521 345 180 202 289 416 333 653 23 121 26 441 5 543 l-13
67 -134 0 c-74 0 -134 -3 -134 -7z"/>
<path d="M3902 8453 c2 -70 6 -88 18 -88 12 0 16 18 18 88 3 82 2 87 -18 87
-20 0 -21 -5 -18 -87z"/>
<path d="M4120 8416 c0 -94 3 -126 13 -126 8 0 8 -3 1 -8 -7 -4 -8 -36 -4 -92
5 -75 6 -80 13 -45 4 22 8 119 9 215 2 158 1 175 -15 178 -15 3 -17 -9 -17
-122z"/>
<path d="M4329 7628 c-1 -502 -2 -926 -4 -943 -1 -16 -3 -60 -4 -97 l-1 -68
-53 0 c-132 0 -405 -54 -557 -110 -216 -79 -456 -221 -628 -370 l-83 -72 -36
41 c-19 23 -38 40 -40 37 -3 -3 13 -26 36 -52 l41 -47 -61 -64 c-266 -285
-428 -676 -455 -1100 l-7 -110 -216 -6 c-119 -3 -295 -3 -391 0 -216 7 -887
-8 -785 -18 39 -4 368 -7 731 -8 l662 -1 7 -93 c22 -280 109 -564 241 -785 66
-110 185 -270 243 -326 34 -33 38 -42 28 -55 -11 -14 -10 -14 6 -2 15 12 28 3
125 -90 81 -78 136 -120 217 -169 315 -185 539 -262 855 -293 l125 -12 3 -647
2 -646 -57 -6 c-71 -6 -1379 -3 -1386 4 -9 8 -11 783 -2 813 9 33 -8 57 -39
57 -45 0 -59 -40 -28 -81 16 -22 18 -60 21 -406 l3 -383 -66 0 -66 0 0 509 c0
329 4 512 10 516 13 8 13 72 -1 80 -17 11 -56 -4 -61 -23 -3 -11 0 -32 6 -48
8 -20 10 -179 8 -532 l-3 -502 -69 0 -70 0 0 613 c1 522 3 615 15 631 18 24
19 68 3 84 -19 19 -55 14 -72 -10 -21 -29 -20 -50 2 -79 16 -22 17 -66 14
-631 l-3 -608 -65 0 -64 0 -1 298 c-1 808 -4 961 -16 973 -7 7 -16 9 -20 5 -4
-4 -6 -293 -4 -642 l3 -634 -71 0 -71 0 -2 523 c-2 406 0 526 10 538 34 44
-11 114 -57 89 -26 -14 -28 -64 -3 -82 16 -12 17 -48 14 -541 l-2 -528 -63 3
-62 3 -3 318 c-2 281 0 320 14 343 14 20 15 30 5 50 -9 21 -17 25 -49 22 -32
-3 -37 -7 -40 -31 -2 -16 1 -34 7 -41 6 -7 12 -137 15 -339 l4 -327 -159 0
-159 0 0 50 c0 33 -4 50 -12 50 -7 0 -13 -11 -13 -24 0 -13 3 -22 7 -19 5 2 8
-1 8 -6 0 -6 -4 -11 -10 -11 -5 0 -10 -9 -10 -20 0 -18 -7 -20 -74 -20 l-73 0
-7 228 c-4 125 -8 361 -9 524 0 163 -5 294 -9 292 -4 -3 -8 -239 -8 -525 l0
-519 -80 0 -80 0 0 540 c0 473 -2 540 -15 540 -13 0 -15 -67 -15 -540 l0 -540
-80 0 -80 0 -2 273 c-2 301 -3 325 -11 347 -3 8 -8 24 -10 35 -3 11 -5 -132
-6 -317 l-1 -338 -74 0 -74 0 -5 68 c-2 37 -4 275 -3 530 2 376 0 462 -11 462
-11 0 -13 -99 -13 -530 l0 -531 -72 3 -73 3 -3 538 c-1 323 -6 537 -11 537 -6
0 -13 -5 -16 -11 -4 -6 -6 -218 -6 -472 1 -254 -1 -492 -5 -529 l-7 -68 -62 0
-62 0 -6 158 c-4 86 -7 331 -7 545 0 318 -2 387 -13 387 -9 0 -14 -12 -15 -30
0 -17 5 -30 11 -30 8 0 8 -3 2 -8 -14 -10 -14 -25 -15 -554 l0 -468 -65 0
c-59 0 -65 2 -69 22 -7 36 -26 297 -27 363 0 33 -4 83 -7 110 -4 28 -5 -73 -3
-222 l3 -273 -71 0 -71 0 -2 88 c0 48 -2 92 -3 97 -2 6 -3 33 -4 60 -1 44 -3
48 -14 30 -7 -12 -14 -74 -17 -150 l-5 -130 -82 3 -83 2 0 -31 0 -32 61 7 c34
3 1951 6 4260 6 4081 0 4199 1 4199 19 0 16 -11 19 -102 24 -57 3 -908 4
-1893 1 -984 -2 -1874 -1 -1977 2 l-186 7 -4 166 c-1 91 -1 383 0 648 l4 481
81 7 c330 26 617 118 894 286 131 79 190 123 280 211 34 33 67 57 73 53 5 -3
10 1 10 11 0 9 21 40 48 68 104 114 232 310 298 454 87 191 163 507 164 680
l0 52 429 0 c236 0 436 3 445 6 52 20 -24 24 -427 24 l-443 0 -11 138 c-22
261 -76 459 -188 687 -75 152 -135 246 -240 370 -41 50 -75 94 -75 99 0 5 8
19 17 30 13 15 11 15 -9 -3 l-28 -24 -57 54 c-261 246 -523 382 -883 458 -103
21 -262 41 -335 41 l-45 0 -1 383 c-1 722 1 1362 6 1500 5 132 4 137 -15 137
-20 0 -20 -8 -21 -912z m-9 -1261 l0 -114 -94 -6 c-186 -12 -430 -78 -601
-162 -97 -47 -287 -184 -373 -268 l-52 -52 -80 85 -79 84 32 36 c118 131 391
303 612 385 200 74 413 120 573 124 l62 1 0 -113z m216 102 c276 -26 591 -135
794 -274 114 -78 335 -265 312 -265 -5 0 -41 -31 -81 -70 -39 -38 -74 -70 -77
-70 -4 0 -37 28 -74 63 -128 122 -308 228 -515 305 -150 56 -338 90 -502 92
l-33 0 0 115 0 115 33 0 c19 0 83 -5 143 -11z m-211 -329 l0 -65 -110 -8 c-80
-5 -149 -18 -253 -47 -211 -59 -370 -144 -550 -294 -50 -42 -95 -76 -99 -75
-5 0 -25 21 -46 46 l-38 46 33 34 c45 48 164 138 278 211 191 122 542 225 745
218 l40 -1 0 -65z m311 46 c116 -21 175 -38 293 -85 149 -60 239 -111 386
-222 163 -121 163 -120 137 -156 -11 -15 -32 -39 -46 -52 l-25 -24 -86 81
c-201 190 -573 342 -840 342 l-95 0 0 72 0 71 98 -6 c53 -4 133 -13 178 -21z
m1127 -383 c226 -282 368 -634 396 -982 6 -73 8 -137 5 -142 -3 -5 -52 -9
-110 -9 l-104 0 0 48 c0 200 -73 469 -191 703 -32 65 -163 245 -222 306 l-41
43 80 74 c43 41 82 75 86 76 3 0 49 -53 101 -117z m-2658 27 l81 -80 -54 -58
c-30 -31 -82 -100 -116 -152 -173 -261 -239 -448 -267 -748 l-13 -134 -35 6
c-20 3 -66 6 -103 6 l-68 0 0 103 c0 272 112 632 270 871 72 108 202 266 219
266 3 0 42 -36 86 -80z m1480 -1 c152 -27 341 -110 473 -209 209 -157 338
-332 420 -575 29 -86 62 -266 62 -340 0 -30 -3 -35 -24 -35 -27 0 -36 21 -36
90 -1 188 -92 420 -233 598 -192 240 -419 376 -698 417 -198 30 -194 29 -197
49 -2 10 1 22 7 25 12 8 130 -3 226 -20z m-247 -1 c-3 -21 -12 -24 -117 -40
-152 -22 -241 -44 -326 -81 -236 -104 -421 -273 -543 -497 -82 -150 -126 -295
-147 -483 -7 -64 -28 -84 -52 -52 -16 22 -11 78 18 205 39 170 100 315 195
462 119 184 362 370 574 437 114 37 273 70 338 70 60 1 63 0 60 -21z m-1038
-198 c0 -3 -17 -23 -37 -45 -73 -81 -152 -196 -206 -302 -79 -156 -110 -271
-131 -488 l-11 -120 -64 -3 -64 -3 6 118 c7 128 39 282 82 403 56 155 126 273
280 473 l50 65 48 -46 c26 -25 47 -49 47 -52z m2223 58 c111 -138 156 -208
222 -343 107 -219 144 -354 160 -582 l7 -93 -65 0 -65 0 -6 78 c-21 272 -94
500 -222 692 -42 63 -60 86 -132 162 l-34 36 42 46 c23 25 46 46 51 46 4 0 23
-19 42 -42z m-1193 -126 l0 -78 -97 -11 c-126 -16 -205 -43 -297 -103 -92 -60
-143 -106 -205 -184 -97 -122 -169 -312 -170 -447 l-1 -66 -87 -6 c-47 -3 -90
-4 -95 -1 -5 3 -6 33 -2 67 17 169 81 346 176 488 58 87 198 230 267 273 50
31 199 94 279 118 63 18 208 38 225 30 4 -2 7 -38 7 -80z m255 53 c75 -20 244
-100 321 -153 65 -43 193 -173 241 -242 43 -63 101 -179 118 -237 20 -68 45
-217 45 -269 l0 -44 -85 0 c-61 0 -85 3 -85 13 0 6 -5 51 -10 99 -30 263 -210
514 -445 623 -82 38 -221 75 -282 75 l-43 0 0 81 0 82 83 -6 c45 -3 109 -13
142 -22z m-255 -239 l0 -65 -57 -6 c-153 -17 -268 -79 -387 -206 -65 -70 -79
-93 -110 -172 -40 -104 -55 -165 -56 -219 0 -36 -2 -38 -32 -40 -105 -6 -98
-8 -98 27 0 67 39 243 71 320 30 73 44 91 149 196 89 89 131 124 187 153 87
44 197 75 276 75 l57 1 0 -64z m203 45 c212 -55 378 -196 491 -418 30 -60 76
-239 76 -295 l0 -38 -65 0 c-55 0 -65 3 -65 18 0 9 -5 50 -10 90 -18 139 -131
326 -251 416 -64 48 -196 97 -296 111 -57 7 -63 16 -63 93 l0 42 53 0 c30 0
88 -9 130 -19z m-208 -226 l0 -69 -69 -13 c-80 -14 -152 -55 -227 -126 -62
-59 -105 -146 -121 -247 l-12 -75 -68 3 c-64 3 -68 5 -68 27 0 41 29 174 51
238 48 133 279 307 435 327 33 4 64 6 69 5 6 -1 10 -32 10 -70z m174 48 c231
-64 398 -263 426 -510 l7 -63 -56 -2 c-31 -1 -64 -2 -73 -2 -15 -1 -19 11 -25
68 -13 136 -119 292 -233 345 -27 13 -84 31 -126 39 l-75 16 4 55 c5 83 6 84
55 76 23 -3 66 -13 96 -22z m-31 -307 c56 -28 82 -55 114 -116 33 -64 33 -205
0 -268 -64 -121 -194 -178 -324 -142 -102 29 -188 149 -188 264 0 76 21 140
61 189 33 41 103 85 152 98 50 13 134 1 185 -25z m-1554 -318 c2 -18 9 -79 16
-135 26 -241 124 -457 309 -683 33 -41 61 -78 61 -81 0 -14 -40 -55 -68 -72
l-31 -17 -58 70 c-197 239 -331 564 -350 846 -7 103 -9 101 74 103 40 1 42 0
47 -31z m290 10 c3 -13 7 -52 10 -88 6 -75 57 -234 109 -336 77 -153 250 -351
383 -441 153 -102 348 -176 516 -195 57 -6 107 -14 111 -19 5 -4 6 -16 2 -28
-8 -26 -40 -27 -156 -5 -169 31 -267 65 -395 135 -297 164 -503 422 -594 744
-17 61 -34 143 -37 183 l-6 72 26 0 c20 0 28 -6 31 -22z m351 -45 c23 -215
152 -433 324 -547 132 -88 236 -127 404 -151 l47 -6 0 -80 0 -79 -36 0 c-20 0
-82 9 -137 21 -155 31 -322 116 -466 238 -134 113 -285 382 -306 546 -3 28 -8
64 -11 82 l-5 32 78 4 c43 1 83 4 89 5 7 1 14 -24 19 -65z m180 -19 c11 -102
77 -226 163 -304 129 -117 240 -173 371 -186 l61 -7 0 -73 0 -74 -31 0 c-57 0
-194 41 -289 87 -79 38 -108 59 -181 133 -134 133 -191 233 -224 392 -23 108
-24 107 43 110 31 2 62 -1 68 -5 7 -4 15 -37 19 -73z m169 70 c3 -9 6 -28 6
-43 0 -45 64 -162 116 -213 70 -66 132 -102 224 -129 l80 -23 0 -64 0 -64 -52
7 c-185 25 -371 154 -458 316 -32 61 -66 189 -56 214 8 22 131 21 140 -1z
m979 6 l48 0 -7 -47 c-22 -152 -110 -286 -251 -384 -86 -59 -159 -88 -248 -96
l-64 -6 -6 35 c-4 19 -5 48 -3 63 3 26 8 29 73 45 111 25 159 54 227 133 59
69 128 195 128 235 0 26 11 34 35 28 11 -3 42 -6 68 -6z m653 -52 c-34 -301
-133 -509 -351 -737 -156 -163 -410 -292 -659 -336 -95 -16 -166 -20 -166 -7
0 4 -3 17 -6 29 -6 20 -2 21 83 28 179 15 385 86 542 188 253 164 462 514 496
830 7 66 8 67 37 67 l31 0 -7 -62z m366 -23 c-7 -214 -74 -432 -196 -638 -43
-73 -169 -248 -216 -301 -9 -9 -60 43 -81 80 -10 19 -5 29 35 78 84 103 189
269 229 360 49 115 93 287 102 403 8 102 8 102 85 100 l45 -2 -3 -80z m-3162
70 c0 -3 5 -49 11 -103 35 -325 165 -628 367 -860 l63 -73 -78 -80 -78 -81
-58 64 c-63 69 -184 244 -240 348 -115 211 -197 509 -197 713 l0 77 105 0 c58
0 105 -2 105 -5z m2356 -42 c-13 -100 -48 -210 -87 -278 -112 -196 -310 -339
-526 -380 -129 -25 -123 -27 -123 60 l0 75 55 0 c62 0 120 17 220 66 84 42
102 57 181 154 87 106 131 199 149 313 l6 37 66 0 66 0 -7 -47z m214 7 c0
-119 -60 -293 -144 -419 -57 -85 -181 -220 -259 -280 -117 -90 -308 -162 -464
-176 l-83 -7 0 80 0 79 86 11 c101 14 232 57 311 103 60 35 163 133 222 210
19 24 55 88 82 142 45 93 60 141 74 250 l6 47 85 0 84 0 0 -40z m855 13 c-2
-16 -6 -70 -9 -122 -19 -325 -187 -717 -420 -979 l-69 -78 -67 65 c-104 104
-104 84 -1 212 106 131 197 280 246 402 57 141 82 253 111 485 l5 42 104 0
105 0 -5 -27z m-717 -982 c16 -23 15 -25 -48 -82 -141 -127 -365 -257 -550
-318 -131 -42 -301 -79 -404 -87 l-86 -7 0 70 0 70 103 6 c129 7 347 62 472
119 123 55 275 158 365 245 l75 73 28 -33 c16 -17 36 -43 45 -56z m-2087 39
c60 -58 222 -171 319 -223 164 -87 367 -150 525 -162 133 -10 126 -6 123 -78
l-3 -62 -54 -3 c-66 -4 -284 39 -411 81 -189 62 -420 200 -584 349 l-48 43 42
48 c23 26 44 47 46 47 2 0 22 -18 45 -40z m-66 -161 c75 -75 195 -163 326
-237 150 -85 399 -158 564 -166 55 -2 108 -5 118 -5 15 -1 17 -14 17 -122 l0
-122 -82 8 c-353 30 -629 129 -939 337 -94 63 -249 202 -249 223 0 14 144 165
157 165 5 0 44 -36 88 -81z m2347 -84 c24 -33 -273 -260 -468 -358 -175 -88
-490 -181 -669 -197 -163 -15 -145 -29 -145 113 l0 122 85 -4 c103 -4 234 22
402 80 241 83 436 196 568 329 l69 70 75 -72 c42 -40 79 -77 83 -83z"/>
<path d="M4542 7776 c2 -420 6 -768 11 -772 4 -4 10 -4 15 0 4 4 9 352 10 772
l4 764 -21 0 -22 0 3 -764z"/>
<path d="M4758 8423 c-8 -176 -4 -1400 5 -1409 4 -4 10 -4 15 0 7 7 21 1495
14 1516 -2 6 -9 10 -16 10 -9 0 -14 -32 -18 -117z"/>
<path d="M4967 7853 c2 -378 6 -689 9 -692 18 -19 22 84 23 620 1 329 4 634 7
678 5 79 4 81 -18 81 l-23 0 2 -687z"/>
<path d="M5170 7855 c0 -575 2 -685 14 -685 7 0 16 13 19 30 4 16 7 325 7 685
0 650 0 655 -20 655 -20 0 -20 -5 -20 -685z"/>
<path d="M5390 8421 c0 -110 8 -146 28 -127 3 4 8 60 10 126 4 117 4 120 -17
120 -20 0 -21 -4 -21 -119z"/>
<path d="M5590 8420 c0 -118 1 -120 20 -110 18 10 20 21 20 120 0 103 -1 110
-20 110 -19 0 -20 -7 -20 -120z"/>
<path d="M6075 8520 c-4 -6 -1 -17 5 -26 15 -18 42 0 33 22 -6 16 -29 19 -38
4z"/>
<path d="M7204 8494 c3 -9 6 -18 6 -20 0 -2 7 -4 15 -4 8 0 15 9 15 20 0 14
-7 20 -21 20 -15 0 -19 -4 -15 -16z"/>
<path d="M2774 8289 c-10 -17 13 -36 27 -22 12 12 4 33 -11 33 -5 0 -12 -5
-16 -11z"/>
<path d="M3915 8270 c3 -5 8 -10 11 -10 2 0 4 5 4 10 0 6 -5 10 -11 10 -5 0
-7 -4 -4 -10z"/>
<path d="M5390 8268 c-6 -249 4 -1036 13 -1045 10 -9 17 253 17 632 1 371 -1
420 -15 423 -8 2 -15 -2 -15 -10z"/>
<path d="M5590 8083 c0 -309 12 -729 21 -706 4 11 9 219 11 462 3 415 2 441
-14 441 -17 0 -18 -16 -18 -197z"/>
<path d="M8207 8274 c-12 -12 3 -22 23 -17 11 3 17 9 14 14 -6 10 -28 12 -37
3z"/>
<path d="M7191 8186 c2 -3 38 -12 79 -20 80 -17 162 -21 174 -8 9 8 12 9 69
12 36 2 39 3 17 10 -26 8 -347 14 -339 6z m242 -23 c-7 -2 -19 -2 -25 0 -7 3
-2 5 12 5 14 0 19 -2 13 -5z"/>
<path d="M1396 8138 c3 -5 10 -6 15 -3 13 9 11 12 -6 12 -8 0 -12 -4 -9 -9z"/>
<path d="M6670 8100 c-8 -5 -10 -10 -5 -10 6 0 17 5 25 10 8 5 11 10 5 10 -5
0 -17 -5 -25 -10z"/>
<path d="M6160 8061 c0 -23 5 -31 18 -31 49 1 58 53 9 58 -24 3 -27 0 -27 -27z"/>
<path d="M4121 8067 c-6 -6 -11 -24 -11 -39 0 -21 5 -28 20 -28 10 0 23 7 28
16 19 34 -12 76 -37 51z"/>
<path d="M8306 8065 c-10 -26 -8 -31 18 -43 28 -13 50 5 44 35 -4 24 -53 30
-62 8z"/>
<path d="M3467 8063 c-11 -10 -8 -38 5 -51 17 -17 48 4 48 33 0 20 -5 25 -23
25 -13 0 -27 -3 -30 -7z"/>
<path d="M3897 8063 c-13 -12 -7 -54 8 -59 19 -8 45 13 45 36 0 23 -37 39 -53
23z"/>
<path d="M3124 8046 c-9 -24 3 -46 26 -46 17 0 21 5 18 27 -3 31 -34 44 -44
19z"/>
<path d="M5845 8030 c-3 -5 -1 -10 4 -10 6 0 11 5 11 10 0 6 -2 10 -4 10 -3 0
-8 -4 -11 -10z"/>
<path d="M7145 8025 c-16 -8 -23 -15 -15 -16 8 0 4 -5 -10 -10 -20 -7 -19 -8
10 -3 19 3 104 8 189 11 144 5 152 6 122 19 -45 19 -254 18 -296 -1z"/>
<path d="M6473 7990 c-76 -48 -172 -142 -245 -241 -61 -82 -133 -207 -124
-216 3 -3 9 3 13 13 8 22 124 194 160 239 56 68 132 141 196 187 58 43 75 58
65 58 -2 0 -31 -18 -65 -40z"/>
<path d="M2803 8004 c-7 -19 11 -39 26 -30 16 10 13 33 -4 40 -9 3 -18 -1 -22
-10z"/>
<path d="M6658 7971 c-25 -16 -49 -34 -53 -40 -4 -7 20 5 52 25 69 44 69 44
57 44 -6 0 -31 -13 -56 -29z"/>
<path d="M7811 7934 c12 -15 11 -16 -9 -10 -43 14 -21 -3 66 -51 112 -62 119
-64 119 -47 0 8 -9 14 -19 14 -10 0 -17 5 -15 11 1 6 -10 12 -25 13 -28 2 -71
33 -63 46 3 4 -2 11 -11 14 -10 4 -13 2 -8 -7 4 -6 -3 -2 -15 11 -25 25 -40
30 -20 6z"/>
<path d="M8095 7930 c-3 -5 -1 -10 4 -10 6 0 11 5 11 10 0 6 -2 10 -4 10 -3 0
-8 -4 -11 -10z"/>
<path d="M8120 7920 c0 -5 5 -10 11 -10 5 0 7 5 4 10 -3 6 -8 10 -11 10 -2 0
-4 -4 -4 -10z"/>
<path d="M6569 7903 c-13 -16 -12 -17 4 -4 9 7 17 15 17 17 0 8 -8 3 -21 -13z"/>
<path d="M7247 7893 c-4 -4 -29 -8 -55 -9 -26 -1 -82 -14 -125 -28 -43 -14
-95 -30 -115 -36 -20 -5 -72 -30 -116 -55 -43 -24 -83 -42 -87 -39 -5 3 -9 1
-9 -4 0 -5 -13 -15 -28 -21 -52 -22 -232 -221 -232 -256 0 -5 14 12 30 38 20
30 35 45 43 41 7 -4 9 -4 5 1 -9 10 102 116 167 160 166 110 407 192 574 196
83 2 104 17 25 18 -39 1 -74 -2 -77 -6z"/>
<path d="M7410 7890 c19 -13 30 -13 30 0 0 6 -10 10 -22 10 -19 0 -20 -2 -8
-10z"/>
<path d="M6464 7843 c-77 -75 -131 -143 -179 -225 -38 -68 -23 -59 27 15 23
34 84 103 134 154 51 51 86 89 77 86 -11 -4 -14 -2 -9 5 13 22 0 12 -50 -35z
m46 23 c0 -2 -8 -10 -17 -17 -16 -13 -17 -12 -4 4 13 16 21 21 21 13z"/>
<path d="M7488 7883 c23 -2 40 -8 37 -13 -3 -4 50 -26 116 -49 102 -34 119
-37 104 -21 -10 11 -26 20 -36 20 -10 0 -21 5 -24 10 -3 6 -14 10 -24 10 -10
0 -32 7 -49 16 -19 9 -41 13 -53 9 -13 -5 -19 -3 -15 3 8 14 -18 22 -62 20
-36 -1 -36 -2 6 -5z"/>
<path d="M3894 7846 c-16 -42 19 -71 50 -41 12 12 13 21 6 36 -12 22 -48 25
-56 5z"/>
<path d="M4117 7853 c-23 -23 5 -82 30 -62 21 18 17 69 -5 69 -10 0 -22 -3
-25 -7z"/>
<path d="M6651 7810 c-18 -17 -30 -30 -24 -30 12 0 80 59 68 59 -5 1 -25 -13
-44 -29z"/>
<path d="M2800 7816 c0 -17 24 -38 33 -29 15 15 6 43 -13 43 -11 0 -20 -6 -20
-14z"/>
<path d="M3305 7796 c-40 -18 -79 -56 -100 -96 -24 -46 -17 -158 11 -197 48
-65 126 -94 196 -74 87 26 159 134 144 215 -11 56 -56 114 -110 141 -55 28
-96 31 -141 11z"/>
<path d="M8026 7794 c-3 -8 -2 -12 4 -9 6 3 10 1 10 -6 0 -6 40 -53 89 -103
49 -50 110 -124 136 -164 26 -40 49 -71 51 -69 6 5 -38 91 -49 95 -4 2 -5 7
-2 11 2 5 -7 19 -20 31 -14 13 -25 28 -25 35 0 6 -8 17 -17 26 -10 8 -40 41
-67 72 -26 32 -61 66 -76 77 -24 17 -29 18 -34 4z m55 -41 c13 -16 12 -17 -3
-4 -10 7 -18 15 -18 17 0 8 8 3 21 -13z"/>
<path d="M2122 7734 c-12 -24 -20 -44 -18 -44 8 0 48 70 44 79 -2 5 -13 -11
-26 -35z"/>
<path d="M7415 7759 c62 -7 84 -14 96 -31 11 -14 28 -21 57 -22 24 0 38 -5 35
-11 -3 -5 0 -4 8 3 12 11 11 15 -6 28 -30 23 -83 34 -180 39 l-90 4 80 -10z"/>
<path d="M7198 7743 c7 -3 16 -2 19 1 4 3 -2 6 -13 5 -11 0 -14 -3 -6 -6z"/>
<path d="M5836 7724 c-19 -18 -19 -20 -6 -45 19 -35 70 -20 70 21 0 11 -29 40
-40 40 -5 0 -16 -7 -24 -16z"/>
<path d="M6468 7675 c-49 -51 -97 -126 -97 -150 0 -5 7 -1 15 10 8 11 19 19
24 18 5 -2 6 5 3 14 -4 11 -3 14 5 9 7 -4 12 -3 12 2 0 4 16 27 35 49 19 22
31 44 27 48 -4 5 -2 5 4 2 6 -4 20 3 30 16 10 12 12 16 4 10 -23 -21 -35 -15
-15 7 10 11 16 20 12 20 -3 0 -29 -25 -59 -55z"/>
<path d="M6925 7666 c-83 -41 -113 -61 -75 -50 47 13 185 83 165 84 -11 0 -52
-15 -90 -34z"/>
<path d="M2042 7598 c-30 -44 -49 -78 -44 -74 12 7 105 146 101 151 -2 2 -28
-33 -57 -77z"/>
<path d="M7980 7653 c0 -4 26 -35 59 -68 32 -33 81 -91 110 -128 28 -38 51
-61 51 -52 0 10 5 13 12 9 14 -9 6 4 -35 63 -17 23 -34 40 -38 37 -4 -2 -18 9
-30 25 -25 34 -129 126 -129 114z"/>
<path d="M8382 7610 c17 -27 35 -47 40 -44 9 6 5 15 -29 62 -37 50 -46 38 -11
-18z"/>
<path d="M3890 7633 c1 -50 53 -59 58 -10 3 24 0 27 -27 27 -23 0 -31 -5 -31
-17z"/>
<path d="M4117 7643 c-10 -9 -8 -35 2 -52 8 -12 12 -12 25 -2 23 19 21 61 -2
61 -10 0 -22 -3 -25 -7z"/>
<path d="M2875 7630 c-3 -5 -1 -10 4 -10 6 0 11 5 11 10 0 6 -2 10 -4 10 -3 0
-8 -4 -11 -10z"/>
<path d="M7811 7525 c67 -72 113 -134 162 -220 21 -37 27 -43 22 -22 -4 19 -2
26 5 22 5 -3 10 -1 10 5 0 7 -7 9 -16 6 -12 -5 -15 -2 -10 11 12 29 -142 231
-165 217 -14 -8 -40 16 -32 30 3 6 3 8 -2 4 -4 -4 -15 -2 -24 4 -9 7 14 -19
50 -57z"/>
<path d="M7627 7501 c40 -21 87 -49 105 -63 53 -39 66 -42 26 -6 -33 30 -175
108 -196 108 -4 0 26 -18 65 -39z"/>
<path d="M7970 7518 c0 -4 6 -13 13 -20 21 -22 84 -122 99 -156 9 -21 17 -29
25 -24 10 6 3 24 -26 68 -40 60 -110 144 -111 132z"/>
<path d="M0 7375 c0 -76 2 -136 5 -134 7 7 8 259 1 266 -3 4 -6 -56 -6 -132z"/>
<path d="M1944 7478 l-29 -33 33 29 c17 17 32 31 32 33 0 8 -8 1 -36 -29z"/>
<path d="M7018 7493 c-10 -2 -18 -9 -18 -14 0 -6 10 -5 23 2 37 20 36 23 -5
12z"/>
<path d="M4120 7445 c-17 -21 -4 -65 19 -65 24 0 34 46 14 66 -18 17 -18 17
-33 -1z"/>
<path d="M3894 7436 c-11 -29 1 -51 26 -51 21 0 26 5 28 33 3 29 1 32 -23 32
-14 0 -28 -6 -31 -14z"/>
<path d="M7304 7438 c-3 -4 6 -8 20 -8 14 0 26 4 26 8 0 4 -9 8 -21 8 -11 0
-23 -4 -25 -8z"/>
<path d="M7360 7440 c0 -5 10 -10 23 -10 18 0 19 2 7 10 -19 13 -30 13 -30 0z"/>
<path d="M1879 7413 l-24 -28 28 24 c25 23 32 31 24 31 -2 0 -14 -12 -28 -27z"/>
<path d="M5780 7405 c0 -26 24 -35 32 -12 7 18 -2 37 -18 37 -8 0 -14 -10 -14
-25z"/>
<path d="M7189 7416 c-25 -7 -54 -18 -65 -25 -16 -10 -14 -11 16 -5 19 4 58
10 85 14 28 4 43 8 35 9 -11 2 -9 5 5 11 18 8 18 9 -5 8 -14 0 -46 -5 -71 -12z"/>
<path d="M6007 7368 c-26 -72 -36 -110 -43 -173 -7 -62 2 -75 10 -14 9 62 27
143 42 183 8 21 13 40 10 43 -2 2 -11 -15 -19 -39z"/>
<path d="M1805 7354 l-40 -36 43 32 c36 27 49 40 40 40 -2 0 -21 -16 -43 -36z"/>
<path d="M1734 7298 l-19 -23 23 19 c21 18 27 26 19 26 -2 0 -12 -10 -23 -22z"/>
<path d="M2621 7304 c0 -11 3 -14 6 -6 3 7 2 16 -1 19 -3 4 -6 -2 -5 -13z"/>
<path d="M7185 7286 c-27 -11 -69 -46 -132 -111 -86 -91 -92 -100 -102 -156
-17 -100 13 -229 74 -315 95 -133 256 -187 400 -133 30 11 55 25 55 30 0 6 -8
8 -17 5 -116 -33 -220 -26 -295 18 -75 44 -144 124 -167 193 -25 74 -27 163
-6 223 16 44 95 149 142 188 57 47 257 32 332 -25 99 -76 142 -150 149 -258 8
-125 -36 -180 -175 -216 -95 -25 -144 -21 -230 21 -88 43 -108 79 -108 190 0
85 5 100 63 212 9 17 -41 -3 -58 -24 -121 -143 -80 -353 85 -441 62 -33 178
-31 271 6 39 15 82 39 95 53 12 13 29 22 37 19 9 -3 23 17 44 63 28 61 30 74
25 139 -4 52 -14 90 -37 137 -29 61 -80 116 -108 116 -7 0 -12 4 -12 8 0 4 -9
8 -19 9 -11 1 -38 14 -61 29 -35 23 -54 28 -123 31 -55 2 -95 -2 -122 -11z"/>
<path d="M8020 7265 c0 -5 5 -17 10 -25 5 -8 10 -10 10 -5 0 6 -5 17 -10 25
-5 8 -10 11 -10 5z"/>
<path d="M1650 7239 c-17 -13 -18 -17 -5 -10 33 17 51 31 40 31 -5 0 -21 -10
-35 -21z"/>
<path d="M4114 7236 c-10 -25 0 -61 17 -64 17 -3 32 40 22 65 -7 17 -32 17
-39 -1z"/>
<path d="M8001 7234 c0 -11 3 -14 6 -6 3 7 2 16 -1 19 -3 4 -6 -2 -5 -13z"/>
<path d="M3670 7230 c0 -5 5 -10 10 -10 6 0 10 5 10 10 0 6 -4 10 -10 10 -5 0
-10 -4 -10 -10z"/>
<path d="M3894 7226 c-10 -26 4 -48 28 -44 17 2 23 10 23 28 0 18 -6 26 -23
28 -13 2 -25 -3 -28 -12z"/>
<path d="M7257 7176 c-49 -18 -61 -35 -86 -121 -28 -94 -28 -183 0 -219 39
-50 94 -70 204 -73 118 -4 130 2 172 92 34 75 28 144 -17 215 -60 94 -180 141
-273 106z m216 -128 c15 -20 21 -46 23 -90 1 -35 0 -50 -3 -34 -2 16 -11 40
-20 52 -8 13 -11 29 -7 35 4 7 3 9 -3 6 -5 -3 -17 10 -27 29 -15 33 -15 35 0
32 9 -2 26 -15 37 -30z"/>
<path d="M8056 7120 c3 -30 10 -59 16 -65 6 -7 7 4 2 30 -13 72 -24 93 -18 35z"/>
<path d="M6352 7095 c-17 -104 -23 -243 -14 -305 6 -43 8 -23 9 92 1 82 7 172
14 202 6 29 9 60 7 67 -3 8 -10 -17 -16 -56z"/>
<path d="M5312 7103 c-37 -7 -100 -77 -108 -118 -8 -46 10 -110 41 -141 12
-12 42 -28 65 -34 131 -35 231 126 149 242 -33 46 -83 63 -147 51z"/>
<path d="M6722 7090 c0 -14 2 -19 5 -12 2 6 2 18 0 25 -3 6 -5 1 -5 -13z"/>
<path d="M8032 7075 c0 -16 2 -22 5 -12 2 9 2 23 0 30 -3 6 -5 -1 -5 -18z"/>
<path d="M4 7061 c1 -31 7 -38 89 -87 l88 -53 -1 -924 c0 -929 3 -1078 24
-1057 8 8 11 291 11 991 l0 981 50 -7 c28 -3 68 -11 90 -16 l40 -10 0 -984 c0
-541 3 -987 8 -991 4 -4 10 -4 15 0 4 4 7 451 7 993 l0 985 30 -6 c71 -13 170
-18 155 -7 -14 10 -56 16 -169 26 -30 2 -78 11 -105 19 -28 9 -86 23 -129 32
-98 20 -193 78 -200 121 -4 23 -5 22 -3 -6z"/>
<path d="M4127 7063 c-11 -10 -8 -63 3 -63 6 0 10 16 10 35 0 36 -2 40 -13 28z"/>
<path d="M2678 7020 c-91 -27 -138 -92 -138 -188 0 -109 75 -185 182 -186 80
0 167 76 182 159 15 77 -39 170 -119 206 -43 20 -65 22 -107 9z"/>
<path d="M2140 6986 c0 -29 11 -39 35 -30 24 10 15 48 -12 52 -19 3 -23 -1
-23 -22z"/>
<path d="M3660 6945 c27 -14 36 -13 25 4 -3 6 -16 11 -28 11 -21 -1 -21 -1 3
-15z"/>
<path d="M8161 6934 c0 -11 3 -14 6 -6 3 7 2 16 -1 19 -3 4 -6 -2 -5 -13z"/>
<path d="M3700 6928 c0 -9 7 -22 17 -29 15 -13 15 -12 3 11 -17 34 -20 36 -20
18z"/>
<path d="M870 6890 c-115 -16 -196 -109 -187 -215 1 -16 6 -36 10 -42 11 -18
28 -16 21 2 -4 8 1 17 10 21 10 4 16 18 16 36 0 64 56 106 146 110 32 1 50 -6
78 -28 63 -49 82 -107 50 -152 -8 -12 -10 -22 -5 -22 6 0 11 5 11 10 0 6 7 10
15 10 9 0 12 6 9 15 -4 8 -1 22 6 29 9 11 7 29 -9 81 -12 37 -18 71 -15 77 3
5 -2 19 -13 30 -10 12 -12 18 -4 13 10 -6 12 -4 7 4 -5 7 -14 10 -21 7 -8 -3
-15 -1 -17 3 -5 12 -59 18 -108 11z"/>
<path d="M3930 6855 c-26 -31 13 -82 44 -56 21 17 21 57 0 65 -23 9 -30 8 -44
-9z"/>
<path d="M1848 6779 c-22 -12 -23 -52 -3 -69 22 -18 49 -8 60 24 8 23 6 30
-10 42 -22 16 -25 17 -47 3z"/>
<path d="M2128 6749 c-21 -12 -24 -49 -6 -67 18 -18 43 -15 63 8 15 17 16 24
7 45 -12 26 -35 31 -64 14z"/>
<path d="M5957 6710 c3 -30 12 -66 20 -80 l14 -25 -7 25 c-4 14 -8 44 -8 67 0
23 -4 39 -8 37 -3 -2 -9 4 -11 13 -3 10 -3 -7 0 -37z"/>
<path d="M3242 6618 c-16 -16 -15 -35 1 -41 20 -8 39 8 35 28 -4 23 -20 29
-36 13z"/>
<path d="M5995 6591 c-11 -36 70 -243 127 -324 30 -43 34 -24 4 20 -14 20 -26
42 -26 48 0 6 -10 28 -21 50 -12 22 -21 41 -20 43 5 9 0 42 -6 39 -5 -3 -9 7
-10 21 0 15 -6 28 -12 30 -6 2 -11 17 -11 33 0 20 -4 28 -11 23 -8 -4 -9 0 -4
15 3 11 4 21 1 21 -2 0 -7 -9 -11 -19z"/>
<path d="M738 6555 c-4 -18 -1 -25 10 -25 12 0 12 -2 1 -17 -12 -15 -12 -16 4
-10 12 4 17 1 17 -9 0 -10 6 -14 15 -11 8 4 17 2 20 -3 7 -11 55 -6 63 7 4 5
16 13 27 18 16 7 9 10 -32 15 -38 4 -60 13 -81 33 -35 33 -38 33 -44 2z"/>
<path d="M5540 6560 c-11 -11 -20 -26 -20 -33 0 -18 32 -47 51 -47 40 0 55 71
20 90 -26 13 -28 13 -51 -10z"/>
<path d="M1836 6501 c-33 -36 11 -86 59 -67 22 8 19 63 -4 76 -27 14 -35 13
-55 -9z"/>
<path d="M8226 6503 c-6 -14 -5 -15 5 -6 7 7 10 15 7 18 -3 3 -9 -2 -12 -12z"/>
<path d="M604 6475 c-11 -62 0 -1673 12 -1685 12 -12 24 627 24 1313 0 349 -2
407 -15 407 -8 0 -17 -14 -21 -35z"/>
<path d="M2322 6498 c-16 -16 -15 -28 4 -49 21 -24 54 -8 54 25 0 33 -35 47
-58 24z"/>
<path d="M6610 6440 c6 -11 13 -20 16 -20 2 0 0 9 -6 20 -6 11 -13 20 -16 20
-2 0 0 -9 6 -20z"/>
<path d="M8185 6439 c-4 -6 -5 -12 -2 -15 2 -3 7 2 10 11 7 17 1 20 -8 4z"/>
<path d="M7398 6433 c7 -3 16 -2 19 1 4 3 -2 6 -13 5 -11 0 -14 -3 -6 -6z"/>
<path d="M1037 5793 c3 -657 8 -857 24 -832 5 8 9 333 9 722 0 676 -3 747 -28
747 -4 0 -6 -287 -5 -637z"/>
<path d="M8255 6340 c-26 -41 -35 -70 -12 -35 35 51 49 75 43 75 -3 0 -17 -18
-31 -40z"/>
<path d="M830 6349 c-8 -14 -10 -224 -8 -724 3 -636 5 -706 19 -721 16 -15 20
-13 59 22 23 21 46 49 51 62 12 30 3 62 -17 62 -8 0 -14 5 -14 10 0 6 -13 10
-30 10 l-30 0 0 148 c-1 81 0 373 0 650 1 331 -3 502 -9 502 -6 0 -15 -9 -21
-21z"/>
<path d="M6542 6312 c54 -64 94 -105 113 -114 18 -9 -37 54 -104 119 -33 31
-38 29 -9 -5z"/>
<path d="M7081 6326 c4 -4 21 -11 39 -16 19 -5 29 -6 24 -1 -10 10 -72 26 -63
17z"/>
<path d="M7403 6283 c9 -2 23 -2 30 0 6 3 -1 5 -18 5 -16 0 -22 -2 -12 -5z"/>
<path d="M8196 6253 c-71 -96 -179 -202 -254 -250 -45 -30 -80 -58 -77 -63 16
-25 245 143 245 180 0 9 9 25 21 36 26 23 93 114 88 118 -2 2 -12 -7 -23 -21z"/>
<path d="M2707 6252 c-35 -38 -12 -102 37 -102 33 0 70 43 61 72 -4 12 -12 29
-17 36 -15 18 -63 15 -81 -6z"/>
<path d="M6446 6238 c14 -24 87 -108 93 -108 4 0 8 10 8 22 2 16 0 19 -6 9 -6
-9 -11 -10 -15 -2 -4 6 -4 16 0 23 4 6 3 8 -4 4 -6 -3 -13 3 -17 14 -4 11 -11
18 -16 15 -5 -4 -9 -2 -9 4 0 6 -10 15 -21 22 -17 9 -20 8 -13 -3z"/>
<path d="M2023 6185 c-66 -33 -115 -82 -145 -143 -32 -64 -32 -186 -1 -253 27
-60 86 -125 137 -152 64 -33 174 -30 248 6 154 76 224 257 153 398 -57 115
-126 161 -255 167 -77 3 -90 1 -137 -23z"/>
<path d="M5888 6184 c-10 -21 -9 -27 3 -35 30 -19 69 11 56 45 -10 25 -46 19
-59 -10z"/>
<path d="M6160 6203 c0 -5 7 -18 15 -29 13 -18 14 -18 8 4 -5 22 -23 41 -23
25z"/>
<path d="M2835 6130 c10 -11 20 -20 23 -20 3 0 -3 9 -13 20 -10 11 -20 20 -23
20 -3 0 3 -9 13 -20z"/>
<path d="M6210 6131 c0 -6 4 -13 10 -16 6 -3 7 1 4 9 -7 18 -14 21 -14 7z"/>
<path d="M7860 6119 c-32 -27 -104 -63 -177 -90 -62 -23 -96 -44 -47 -30 87
25 196 75 230 106 41 36 36 49 -6 14z"/>
<path d="M6565 6100 c21 -24 26 -25 19 -6 -3 8 -13 17 -22 21 -13 5 -13 2 3
-15z"/>
<path d="M6607 6073 c-10 -16 185 -153 216 -153 7 0 -15 16 -48 35 -33 19 -54
35 -47 35 7 0 10 5 7 11 -4 6 -9 8 -12 5 -3 -3 -17 6 -31 20 -15 13 -34 24
-44 24 -9 0 -21 7 -26 16 -5 9 -12 12 -15 7z"/>
<path d="M6260 6065 c0 -6 28 -37 62 -70 62 -60 57 -51 -21 35 -23 25 -41 40
-41 35z"/>
<path d="M8188 6043 c-18 -16 -50 -44 -71 -63 -21 -19 -57 -47 -79 -62 -23
-16 -37 -28 -31 -28 18 0 100 60 164 120 66 61 76 81 17 33z"/>
<path d="M6960 6025 c14 -8 30 -14 35 -14 6 0 -1 6 -15 14 -14 8 -29 14 -35
14 -5 0 1 -6 15 -14z"/>
<path d="M7108 5973 c7 -3 16 -2 19 1 4 3 -2 6 -13 5 -11 0 -14 -3 -6 -6z"/>
<path d="M8258 5969 c-10 -5 -18 -17 -18 -25 0 -19 16 -10 30 17 12 22 11 22
-12 8z"/>
<path d="M6556 5951 c-12 -18 116 -98 240 -150 79 -32 211 -66 289 -75 44 -5
41 -3 -25 14 -139 37 -195 59 -315 121 -66 34 -134 70 -152 80 -17 11 -34 16
-37 10z"/>
<path d="M7320 5940 c-10 -8 5 -9 50 -4 36 4 67 8 69 10 10 9 -106 3 -119 -6z"/>
<path d="M6140 5859 c0 -14 5 -19 17 -17 26 5 29 38 4 38 -15 0 -21 -6 -21
-21z"/>
<path d="M7364 5802 c3 -5 -8 -6 -25 -4 -22 3 -29 0 -29 -12 0 -11 4 -14 12
-10 7 5 31 7 53 7 22 -1 32 1 22 3 -9 3 -15 10 -12 15 4 5 -1 9 -10 9 -9 0
-14 -4 -11 -8z"/>
<path d="M7318 5693 c7 -3 16 -2 19 1 4 3 -2 6 -13 5 -11 0 -14 -3 -6 -6z"/>
<path d="M8254 5656 c-10 -26 1 -51 23 -54 17 -3 24 3 29 22 3 14 3 30 -1 35
-9 16 -45 13 -51 -3z"/>
<path d="M6305 5639 c-7 -22 18 -59 41 -59 22 0 36 37 24 60 -14 27 -57 26
-65 -1z"/>
<path d="M7028 5603 c6 -2 18 -2 25 0 6 3 1 5 -13 5 -14 0 -19 -2 -12 -5z"/>
<path d="M7555 5603 c-11 -2 -63 -8 -115 -13 l-95 -9 105 5 c92 3 222 23 150
22 -14 -1 -34 -2 -45 -5z"/>
<path d="M7078 5593 c6 -2 18 -2 25 0 6 3 1 5 -13 5 -14 0 -19 -2 -12 -5z"/>
<path d="M1722 5503 c2 -22 8 -28 28 -28 20 0 25 5 25 25 0 20 -6 26 -28 28
-26 3 -28 1 -25 -25z"/>
<path d="M7741 5434 c-42 -30 -7 -105 37 -78 9 6 18 25 20 42 4 40 -25 58 -57
36z"/>
<path d="M8030 5430 c-8 -15 -6 -24 10 -40 23 -23 52 -15 64 16 15 40 -54 62
-74 24z"/>
<path d="M6593 5320 c-48 -29 -76 -91 -71 -155 7 -80 70 -145 139 -145 61 1
113 32 139 85 67 139 -80 293 -207 215z"/>
<path d="M7182 5300 c-41 -38 -20 -102 33 -102 54 0 85 71 47 105 -25 23 -54
21 -80 -3z"/>
<path d="M8250 5260 c-8 -14 -8 -26 0 -40 15 -27 36 -25 56 5 13 20 14 28 4
40 -18 21 -47 19 -60 -5z"/>
<path d="M7680 5150 c-42 -8 -125 -39 -106 -40 4 0 36 7 69 16 68 17 181 23
242 12 33 -6 36 -6 15 3 -34 14 -164 20 -220 9z"/>
<path d="M7685 5044 c-51 -13 -104 -37 -99 -45 3 -5 10 -6 16 -3 7 5 8 2 4 -5
-5 -7 -14 -10 -21 -7 -7 2 -23 -3 -34 -12 -11 -9 -31 -25 -45 -34 -13 -9 -41
-43 -63 -75 -92 -134 -108 -250 -53 -390 16 -43 38 -91 49 -106 39 -60 105
-118 169 -149 60 -30 75 -33 157 -33 79 0 99 4 167 33 42 18 97 52 123 74 53
47 109 124 100 138 -3 6 -1 10 4 10 6 0 11 11 11 25 0 14 3 25 8 25 4 0 15 22
25 49 20 56 22 152 5 202 -12 37 -81 143 -99 155 -8 4 -9 3 -5 -4 4 -7 5 -12
3 -12 -3 0 -14 16 -26 35 -15 25 -25 33 -37 28 -12 -4 -15 -3 -10 6 4 6 4 11
-1 10 -29 -5 -45 2 -38 19 5 14 4 15 -6 5 -16 -16 -33 -17 -23 -1 5 8 2 9 -9
5 -10 -3 -17 -2 -17 3 0 6 6 10 13 10 8 0 7 4 -3 10 -19 12 -33 13 -26 1 3 -5
-9 -7 -27 -6 -48 4 -49 4 -42 15 3 6 18 8 33 4 25 -5 25 -4 7 7 -20 13 -173
22 -210 13z m65 -14 c-8 -5 -19 -10 -25 -10 -5 0 -3 5 5 10 8 5 20 10 25 10 6
0 3 -5 -5 -10z m70 0 l25 -8 -25 -1 c-14 0 -32 4 -40 9 -13 9 -13 10 0 9 8 -1
26 -5 40 -9z m107 -60 c152 -71 253 -198 253 -319 0 -111 -49 -236 -122 -311
-59 -61 -128 -96 -229 -116 -79 -15 -90 -15 -141 0 -85 24 -146 71 -200 151
-95 142 -113 285 -51 417 50 108 113 157 258 204 87 28 123 24 232 -26z"/>
<path d="M7690 4941 c-126 -41 -203 -126 -234 -259 -14 -61 -14 -64 15 -144
53 -151 123 -226 244 -264 48 -16 55 -15 129 5 166 46 267 163 282 329 9 95
-2 117 -114 242 -56 63 -124 92 -222 96 -41 2 -86 0 -100 -5z m210 -67 c72
-34 138 -95 166 -152 22 -46 22 -130 -1 -207 -22 -77 -114 -168 -193 -191 -85
-25 -167 -16 -236 26 -63 39 -92 77 -125 168 -71 190 72 400 264 390 41 -3 81
-13 125 -34z"/>
<path d="M7684 4837 c-75 -36 -121 -94 -138 -174 -11 -47 30 -188 65 -228 91
-103 253 -94 358 21 54 59 77 126 68 193 -5 41 -19 62 -86 129 -51 52 -89 69
-163 77 -43 5 -62 2 -104 -18z m154 -29 c6 -1 12 -5 12 -10 0 -5 4 -6 10 -3
21 13 77 -30 123 -95 49 -70 -14 -223 -115 -276 -44 -23 -127 -18 -186 12 -73
36 -85 64 -86 206 -1 60 2 70 30 105 44 55 88 75 149 68 28 -3 56 -6 63 -7z"/>
<path d="M7886 4759 c12 -13 27 -34 33 -46 13 -26 15 -93 2 -93 -5 0 -15 -15
-21 -34 -6 -19 -23 -46 -37 -60 -21 -21 -35 -26 -79 -26 -75 0 -104 26 -106
97 -1 61 17 95 63 118 37 20 64 12 103 -29 20 -21 27 -25 22 -12 -7 19 -6 19
13 2 19 -17 19 -17 14 3 -3 12 -21 34 -40 51 -63 55 -158 34 -194 -43 -31 -69
-19 -155 27 -198 37 -34 120 -38 174 -8 113 64 134 262 30 294 l-25 7 21 -23z
m-135 -20 c-14 -5 -31 -15 -38 -21 -8 -6 -13 -6 -13 -1 0 12 38 32 60 32 8 0
4 -5 -9 -10z m18 -255 l56 -11 -45 -2 c-49 -1 -91 15 -98 39 -5 13 -3 13 13 0
10 -8 43 -20 74 -26z"/>
<path d="M7745 4629 c-4 -6 -5 -13 -2 -16 7 -7 27 6 27 18 0 12 -17 12 -25 -2z"/>
<path d="M2169 4974 c-16 -20 -1 -48 29 -52 25 -4 39 32 22 53 -16 19 -34 19
-51 -1z"/>
<path d="M7050 4965 c0 -8 5 -15 10 -15 6 0 10 7 10 15 0 8 -4 15 -10 15 -5 0
-10 -7 -10 -15z"/>
<path d="M7277 4733 c-15 -14 -7 -180 9 -209 12 -21 15 -23 11 -8 -2 12 -1 28
4 35 4 7 3 22 -3 32 -7 15 -7 22 3 28 8 5 9 9 3 9 -6 0 -10 25 -10 60 1 57 -3
68 -17 53z"/>
<path d="M8292 4665 c0 -16 2 -22 5 -12 2 9 2 23 0 30 -3 6 -5 -1 -5 -18z"/>
<path d="M8301 4584 c0 -11 3 -14 6 -6 3 7 2 16 -1 19 -3 4 -6 -2 -5 -13z"/>
<path d="M6473 4373 c-18 -6 -16 -38 2 -53 12 -10 18 -10 30 0 8 7 15 18 15
26 0 16 -30 33 -47 27z"/>
<path d="M590 4355 c-24 -29 8 -75 44 -62 30 12 14 77 -20 77 -6 0 -17 -7 -24
-15z"/>
<path d="M1234 4346 c-9 -24 4 -48 23 -44 12 2 18 12 18 28 0 29 -32 41 -41
16z"/>
<path d="M2184 4332 c-27 -17 -19 -72 10 -72 13 0 46 31 46 43 0 8 -30 37 -38
37 -4 0 -12 -4 -18 -8z"/>
<path d="M917 4316 c-4 -10 -5 -21 -2 -24 9 -9 17 6 13 25 -3 17 -4 17 -11 -1z"/>
<path d="M7062 4308 c-17 -17 -15 -43 4 -59 14 -11 19 -10 35 10 30 37 -6 82
-39 49z"/>
<path d="M1486 4284 c-20 -19 -20 -34 0 -62 20 -29 50 -28 70 3 34 52 -27 103
-70 59z"/>
<path d="M8116 4257 c3 -10 9 -15 12 -12 3 3 0 11 -7 18 -10 9 -11 8 -5 -6z"/>
<path d="M8101 4234 c0 -11 3 -14 6 -6 3 7 2 16 -1 19 -3 4 -6 -2 -5 -13z"/>
<path d="M8061 4204 c0 -11 3 -14 6 -6 3 7 2 16 -1 19 -3 4 -6 -2 -5 -13z"/>
<path d="M7718 4123 c6 -2 18 -2 25 0 6 3 1 5 -13 5 -14 0 -19 -2 -12 -5z"/>
<path d="M7758 4093 c12 -2 32 -2 45 0 12 2 2 4 -23 4 -25 0 -35 -2 -22 -4z"/>
<path d="M1966 4069 c-37 -29 -56 -71 -56 -125 0 -41 5 -51 39 -85 32 -33 45
-39 80 -39 76 0 132 47 146 122 9 47 -17 104 -59 129 -43 26 -115 25 -150 -2z"/>
<path d="M8253 4064 c-7 -18 6 -45 25 -52 14 -4 35 35 28 54 -7 19 -45 18 -53
-2z"/>
<path d="M7250 4050 c0 -11 4 -20 9 -20 11 0 22 26 14 34 -12 12 -23 5 -23
-14z"/>
<path d="M252 3943 c3 -31 32 -43 41 -18 9 23 -3 45 -25 45 -15 0 -19 -6 -16
-27z"/>
<path d="M790 3952 c-163 -55 -270 -146 -345 -294 -46 -92 -58 -161 -53 -293
6 -131 26 -190 98 -292 209 -298 638 -327 877 -58 241 270 192 668 -108 867
-100 66 -149 81 -289 85 -101 2 -135 0 -180 -15z m223 -515 c14 -16 17 -31 13
-56 -7 -42 -22 -59 -61 -67 -46 -9 -85 26 -85 75 0 74 86 105 133 48z"/>
<path d="M8208 3769 c-29 -16 -18 -79 13 -79 32 0 52 73 23 84 -19 7 -15 8
-36 -5z"/>
<path d="M7074 3756 c-10 -26 1 -51 23 -54 17 -3 24 3 29 22 3 14 3 30 -1 35
-9 16 -45 13 -51 -3z"/>
<path d="M7247 3764 c-15 -15 -7 -53 13 -59 29 -9 62 12 58 38 -2 16 -11 23
-33 25 -17 2 -34 0 -38 -4z"/>
<path d="M7434 3756 c-11 -28 1 -51 25 -51 28 0 47 25 38 49 -8 20 -56 21 -63
2z"/>
<path d="M7613 3754 c-8 -21 13 -64 32 -64 20 0 47 43 39 64 -8 21 -62 22 -71
0z"/>
<path d="M7807 3764 c-14 -14 -7 -54 12 -64 28 -15 71 21 55 47 -11 19 -54 29
-67 17z"/>
<path d="M7994 3756 c-12 -31 0 -51 31 -51 27 0 30 3 30 30 0 25 -4 30 -28 33
-17 2 -29 -2 -33 -12z"/>
<path d="M2352 3718 c-29 -29 -1 -75 38 -63 17 5 20 13 18 38 -3 35 -33 48
-56 25z"/>
<path d="M6269 3699 c-16 -30 3 -69 34 -69 29 0 47 17 47 45 0 45 -60 63 -81
24z"/>
<path d="M1799 3573 c-8 -22 -6 -30 9 -46 25 -24 60 -15 68 19 9 37 -2 54 -36
54 -24 0 -33 -6 -41 -27z"/>
<path d="M7622 3578 c-19 -19 -14 -56 8 -63 43 -14 69 44 31 65 -24 13 -24 13
-39 -2z"/>
<path d="M7064 3566 c-10 -26 1 -51 23 -54 28 -4 50 32 32 54 -15 18 -48 18
-55 0z"/>
<path d="M7252 3568 c-17 -17 -15 -45 4 -52 20 -8 64 19 64 38 0 25 -48 34
-68 14z"/>
<path d="M7448 3573 c-38 -10 -27 -63 13 -63 21 0 43 35 35 56 -5 14 -16 16
-48 7z"/>
<path d="M7811 3566 c-21 -26 -9 -51 24 -51 27 0 30 3 30 30 0 23 -5 31 -21
33 -11 2 -26 -4 -33 -12z"/>
<path d="M7994 3566 c-10 -26 1 -51 22 -54 27 -4 47 21 39 48 -7 24 -53 28
-61 6z"/>
<path d="M8195 3559 c-5 -14 -1 -27 10 -38 15 -15 18 -14 36 8 24 30 20 45
-13 49 -20 2 -28 -2 -33 -19z"/>
<path d="M6700 3440 c-52 -52 15 -132 73 -87 28 21 32 62 8 86 -26 26 -55 27
-81 1z"/>
<path d="M7072 3381 c-18 -11 -12 -41 10 -55 14 -8 22 -7 35 7 29 29 -10 71
-45 48z"/>
<path d="M7263 3383 c-16 -6 -17 -35 -1 -51 29 -29 66 -2 53 39 -6 18 -26 23
-52 12z"/>
<path d="M7622 3381 c-8 -4 -12 -19 -10 -32 5 -36 55 -40 64 -5 3 14 3 30 -1
35 -7 13 -35 14 -53 2z"/>
<path d="M7811 3376 c-21 -25 -4 -58 27 -54 23 2 27 8 27 33 0 23 -5 31 -21
33 -11 2 -26 -4 -33 -12z"/>
<path d="M8001 3381 c-20 -13 -6 -61 18 -61 28 0 47 28 34 48 -12 20 -33 25
-52 13z"/>
<path d="M8200 3375 c-10 -12 -9 -20 4 -40 17 -26 24 -29 42 -17 29 19 18 72
-15 72 -10 0 -24 -7 -31 -15z"/>
<path d="M7434 3365 c-7 -17 12 -45 31 -45 13 0 25 21 25 46 0 19 -49 18 -56
-1z"/>
<path d="M1810 3330 c-24 -24 -25 -34 -4 -55 25 -25 58 -15 62 18 3 28 -12 57
-29 57 -5 0 -18 -9 -29 -20z"/>
<path d="M6134 3340 c-11 -4 -33 -22 -47 -40 -95 -112 -25 -280 117 -280 160
0 234 187 116 294 -37 33 -44 36 -103 35 -34 0 -71 -4 -83 -9z"/>
<path d="M2746 3114 c-29 -29 -12 -64 31 -64 31 0 52 42 33 65 -16 19 -44 19
-64 -1z"/>
<path d="M7160 3056 c-134 -36 -226 -92 -332 -204 -194 -206 -221 -514 -66
-753 83 -129 220 -236 358 -280 83 -27 229 -36 312 -19 145 28 248 98 371 250
71 88 104 157 123 258 56 293 -79 580 -328 701 -149 72 -289 87 -438 47z m160
-97 c0 -10 -7 -19 -15 -19 -15 0 -21 31 -9 43 11 10 24 -3 24 -24z m95 -142
c67 -17 168 -87 210 -145 49 -68 70 -141 70 -242 0 -77 -3 -92 -34 -155 -46
-92 -118 -165 -196 -196 -84 -33 -225 -33 -307 0 -63 24 -156 102 -193 162
-63 99 -72 235 -24 359 24 64 39 86 72 113 64 51 90 65 169 92 82 28 158 32
233 12z m275 -6 c10 -20 4 -51 -10 -51 -5 0 -14 -2 -22 -5 -7 -3 -19 -1 -27 4
-12 8 -12 14 -1 40 14 35 44 41 60 12z m-715 -31 c0 -32 -42 -41 -62 -14 -17
24 2 46 36 42 20 -2 26 -9 26 -28z m-167 -306 c28 -8 30 -44 3 -68 -26 -24
-54 -17 -66 18 -8 23 -6 30 10 42 21 16 22 16 53 8z m1056 -7 c15 -11 16 -17
5 -39 -14 -32 -34 -41 -60 -28 -19 10 -27 59 -12 73 11 11 48 8 67 -6z m-874
-342 c10 -12 10 -21 2 -41 -23 -49 -72 -38 -72 16 0 39 45 55 70 25z m701 -16
c9 -18 7 -25 -9 -42 -18 -17 -23 -18 -36 -7 -16 13 -22 51 -9 63 13 14 43 6
54 -14z m-363 -191 c-4 -44 -38 -53 -38 -10 0 32 7 42 27 42 10 0 13 -10 11
-32z"/>
<path d="M7214 2641 c-86 -39 -147 -160 -125 -248 22 -86 53 -128 123 -164 66
-34 161 -20 233 35 92 70 106 222 30 322 -55 71 -170 96 -261 55z"/>
<path d="M1807 3059 c-32 -18 -16 -89 20 -89 15 0 46 57 38 70 -12 19 -40 28
-58 19z"/>
<path d="M7964 3035 c-4 -9 -2 -21 4 -27 15 -15 44 -1 40 19 -4 23 -36 29 -44
8z"/>
<path d="M8212 3014 c-26 -18 -30 -69 -6 -102 19 -27 74 -30 96 -4 60 69 -15
158 -90 106z"/>
<path d="M5676 2911 c-26 -28 -18 -79 17 -105 26 -19 30 -19 55 -5 63 35 50
121 -19 127 -25 2 -40 -3 -53 -17z"/>
<path d="M3009 2886 c-48 -23 -28 -106 26 -106 29 0 55 30 55 62 0 41 -42 64
-81 44z"/>
<path d="M1776 2765 c-26 -27 -29 -56 -8 -84 42 -56 127 -11 102 54 -6 16 -17
33 -23 37 -20 13 -55 9 -71 -7z"/>
<path d="M286 2757 c-21 -16 -18 -61 4 -64 8 -2 26 6 40 16 24 19 24 20 6 40
-22 25 -26 25 -50 8z"/>
<path d="M6385 2724 c-9 -9 -15 -28 -13 -43 4 -37 41 -41 64 -6 16 24 16 27
-1 45 -22 24 -29 25 -50 4z"/>
<path d="M8210 2679 c-9 -16 -8 -26 5 -45 8 -13 22 -24 30 -24 8 0 22 11 30
24 21 32 5 66 -30 66 -14 0 -29 -8 -35 -21z"/>
<path d="M5413 2654 c-9 -25 4 -195 16 -207 21 -21 31 13 31 109 0 57 -4 94
-12 102 -16 16 -27 15 -35 -4z"/>
<path d="M1067 2573 c-10 -9 -7 -313 3 -343 6 -18 8 -9 7 35 0 33 3 117 8 188
8 119 4 143 -18 120z"/>
<path d="M5145 2519 c-6 -17 5 -34 58 -87 62 -62 87 -72 87 -34 0 25 -101 142
-121 142 -10 0 -21 -10 -24 -21z"/>
<path d="M5653 2469 c-53 -61 -62 -82 -42 -94 9 -6 113 82 132 113 9 14 -8 42
-27 42 -6 0 -35 -27 -63 -61z"/>
<path d="M3800 2505 c0 -8 4 -15 10 -15 5 0 7 -7 4 -15 -5 -11 -2 -13 10 -9
21 8 21 40 0 48 -22 9 -24 8 -24 -9z"/>
<path d="M4592 2511 c-18 -11 -11 -61 10 -75 14 -8 22 -6 40 11 19 19 20 26
10 48 -12 25 -36 32 -60 16z"/>
<path d="M4859 2496 c-9 -20 -9 -29 1 -41 28 -34 87 5 64 43 -18 28 -52 27
-65 -2z"/>
<path d="M4080 2445 c0 -8 7 -15 15 -15 8 0 15 7 15 15 0 8 -7 15 -15 15 -8 0
-15 -7 -15 -15z"/>
<path d="M6156 2439 c-33 -26 -34 -62 -1 -95 19 -18 31 -23 48 -19 48 15 64
78 27 115 -25 25 -41 25 -74 -1z"/>
<path d="M8214 2405 c-15 -23 -15 -27 0 -50 26 -40 69 -31 81 16 13 53 -51 80
-81 34z"/>
<path d="M5389 2404 c-56 -17 -101 -64 -125 -131 l-17 -48 -109 3 c-102 4
-110 3 -106 -15 3 -16 14 -18 110 -18 l108 0 5 -27 c4 -14 20 -47 36 -72 34
-51 112 -96 166 -96 77 0 149 57 182 145 12 31 24 49 33 46 7 -2 53 -6 101 -9
96 -5 124 5 96 33 -11 11 -42 16 -116 18 l-101 2 -6 27 c-21 106 -146 175
-257 142z"/>
<path d="M4592 2178 c-30 -30 0 -78 37 -58 32 17 21 70 -14 70 -6 0 -16 -5
-23 -12z"/>
<path d="M3792 2148 c-18 -18 -14 -56 6 -67 21 -11 35 -4 51 27 21 39 -25 72
-57 40z"/>
<path d="M4064 2136 c-10 -26 4 -48 28 -44 17 2 23 10 23 28 0 18 -6 26 -23
28 -13 2 -25 -3 -28 -12z"/>
<path d="M4860 2135 c-19 -23 -8 -50 20 -50 16 0 26 6 28 18 4 18 -14 47 -28
47 -4 0 -13 -7 -20 -15z"/>
<path d="M342 2120 c0 -14 2 -19 5 -12 2 6 2 18 0 25 -3 6 -5 1 -5 -13z"/>
<path d="M6144 2115 c-19 -29 -11 -60 18 -76 46 -24 94 32 68 80 -16 30 -65
28 -86 -4z"/>
<path d="M8213 2125 c-27 -19 -29 -51 -7 -83 18 -25 65 -30 83 -8 15 17 18 73
5 86 -19 18 -59 21 -81 5z"/>
<path d="M5214 1985 c-65 -69 -75 -93 -50 -114 12 -10 26 2 75 65 34 42 61 83
61 90 0 34 -27 22 -86 -41z"/>
<path d="M5600 2018 c0 -28 94 -158 115 -158 8 0 18 12 21 26 5 21 -1 33 -37
71 -24 24 -56 54 -71 64 l-28 20 0 -23z"/>
<path d="M6470 1971 c0 -6 5 -13 10 -16 6 -3 10 1 10 9 0 9 -4 16 -10 16 -5 0
-10 -4 -10 -9z"/>
<path d="M5437 1963 c-4 -3 -7 -53 -7 -110 0 -94 2 -104 18 -101 14 3 17 17
20 88 4 110 -6 149 -31 123z"/>
<path d="M4602 1849 c2 -6 8 -10 13 -10 5 0 11 4 13 10 2 6 -4 11 -13 11 -9 0
-15 -5 -13 -11z"/>
<path d="M4862 1848 c-7 -7 -12 -24 -12 -39 0 -36 33 -48 61 -23 23 21 24 37
3 58 -19 19 -36 20 -52 4z"/>
<path d="M3780 1830 c-16 -30 -3 -60 26 -60 31 0 54 41 34 65 -18 21 -47 19
-60 -5z"/>
<path d="M4070 1835 c-16 -19 -6 -45 18 -45 29 0 48 26 32 45 -16 19 -34 19
-50 0z"/>
<path d="M6152 1810 c-28 -26 -28 -35 3 -65 29 -30 39 -31 65 -5 24 24 26 53
4 74 -21 22 -46 20 -72 -4z"/>
<path d="M8215 1810 c-15 -16 -16 -24 -7 -44 19 -42 47 -50 79 -22 24 21 26
27 18 52 -13 38 -62 45 -90 14z"/>
<path d="M6484 1795 c-19 -28 -11 -60 17 -76 26 -13 44 -7 65 25 15 24 15 28
0 51 -22 33 -60 33 -82 0z"/>
<path d="M5886 1794 c-21 -20 -20 -27 3 -55 16 -20 23 -22 38 -13 22 14 29 50
13 70 -16 18 -35 18 -54 -2z"/>
<path d="M7934 1785 c-13 -51 46 -77 68 -30 14 30 -3 55 -38 55 -17 0 -25 -7
-30 -25z"/>
<path d="M3200 1740 c0 -11 5 -20 10 -20 6 0 10 9 10 20 0 11 -4 20 -10 20 -5
0 -10 -9 -10 -20z"/>
<path d="M6886 1652 c-2 -4 -1 -14 5 -22 7 -12 9 -10 9 8 0 23 -5 28 -14 14z"/>
<path d="M7677 1644 c-8 -8 1 -24 14 -24 5 0 9 7 9 15 0 15 -12 20 -23 9z"/>
<path d="M0 1310 c0 -20 7 -20 4260 -20 4253 0 4260 0 4260 20 0 20 -7 20
-4260 20 -4253 0 -4260 0 -4260 -20z"/>
<path d="M258 1153 c-237 -3 -258 -5 -258 -21 0 -16 204 -17 3845 -17 2115 0
3845 3 3845 6 0 34 -448 39 -3850 37 -1829 -2 -3441 -4 -3582 -5z"/>
<path d="M8130 1154 c-214 -15 -356 -53 -533 -140 -109 -53 -164 -88 -477
-304 -200 -138 -360 -222 -475 -251 -129 -32 -360 -44 -560 -29 -298 22 -462
-6 -720 -121 -94 -43 -299 -181 -373 -253 l-43 -41 -1657 -5 -1657 -5 1882 -3
c1335 -1 1882 1 1885 9 2 6 69 31 148 57 l145 46 380 7 c428 7 548 21 720 84
189 69 260 110 522 306 225 168 271 197 393 248 158 66 285 92 477 98 102 4
191 1 243 -6 45 -7 83 -11 85 -9 1 2 4 68 6 148 l4 145 -45 6 c-63 10 -284 17
-350 13z"/>
<path d="M1031 980 c-51 -5 -98 -13 -104 -19 -6 -6 -9 -11 -6 -11 204 -6 6425
-2 6419 4 -4 4 -28 13 -52 19 -51 13 -6108 19 -6257 7z"/>
<path d="M226 939 c-121 -13 -220 -48 -224 -79 -3 -20 -1 -22 20 -16 149 43
381 58 527 32 105 -18 303 -81 383 -121 103 -52 223 -140 318 -234 93 -92 219
-258 252 -331 23 -50 68 -162 68 -169 0 -3 -301 -7 -670 -8 l-670 -1 -62 30
c-83 40 -134 97 -159 178 -4 15 -8 -25 -8 -97 l-1 -123 815 0 c448 0 815 2
815 4 0 16 -57 160 -81 205 -52 97 -191 280 -270 356 -107 102 -226 188 -325
235 -230 110 -505 163 -728 139z"/>
<path d="M1475 820 c-203 -3 -296 -9 -310 -17 -14 -9 -16 -13 -5 -13 8 0 1357
-1 2997 -3 2517 -2 2978 0 2956 12 -19 10 -109 15 -347 21 -336 9 -4788 9
-5291 0z"/>
<path d="M8014 805 c-113 -17 -261 -65 -370 -121 -45 -23 -139 -86 -209 -140
-225 -177 -411 -297 -526 -342 -247 -97 -355 -112 -834 -122 l-380 -7 -95 -31
c-52 -16 -104 -32 -115 -35 -11 -3 396 -5 905 -6 l925 -1 24 51 c43 95 218
256 393 362 167 101 483 141 687 89 46 -12 90 -22 98 -22 11 0 13 28 11 158
l-3 157 -65 11 c-88 16 -334 15 -446 -1z"/>
<path d="M1555 650 c-115 -4 -211 -8 -212 -8 -31 -20 251 -22 2777 -22 1639 0
2780 4 2780 9 0 5 -21 12 -47 16 -62 9 -5021 13 -5298 5z"/>
<path d="M133 617 c-29 -5 -53 -14 -53 -18 0 -5 -18 -9 -40 -9 -30 0 -40 -4
-40 -16 0 -11 5 -14 18 -9 9 4 35 12 57 18 22 5 45 14 52 19 7 5 20 7 30 4 10
-3 38 1 63 9 l45 14 -40 -1 c-22 0 -64 -5 -92 -11z"/>
<path d="M890 480 c0 -5 4 -10 10 -10 9 0 27 -13 64 -45 40 -36 106 -85 112
-85 7 0 -13 19 -101 99 -29 26 -85 53 -85 41z"/>
<path d="M8085 483 c-68 -10 -187 -43 -262 -73 -102 -39 -177 -87 -279 -181
-92 -84 -130 -126 -168 -186 l-26 -43 123 0 123 0 38 50 c62 81 161 165 239
203 94 46 175 62 285 54 137 -10 240 -47 301 -108 l31 -31 17 39 c17 36 25
160 15 205 -8 33 -150 69 -287 73 -66 2 -133 1 -150 -2z"/>
<path d="M1685 473 c-94 -4 -128 -10 -120 -23 3 -5 792 -8 2008 -6 1580 2
2020 5 2087 16 68 10 131 10 320 1 136 -7 285 -8 350 -4 l115 8 -70 6 c-69 6
-4536 8 -4690 2z"/>
<path d="M1 435 l-1 -41 35 4 c23 3 35 9 35 19 0 12 -3 13 -13 4 -10 -8 -17
-7 -25 1 -9 9 -12 9 -13 -2 -1 -8 -5 1 -9 20 l-7 35 -2 -40z"/>
<path d="M80 409 c0 -5 5 -7 10 -4 6 3 10 8 10 11 0 2 -4 4 -10 4 -5 0 -10 -5
-10 -11z"/>
<path d="M1852 299 c-40 -3 -78 -11 -84 -17 -9 -9 -6 -12 13 -12 240 -4 3146
-5 3227 -2 61 3 112 8 112 13 0 4 -44 10 -97 14 -114 9 -3064 13 -3171 4z"/>
<path d="M7987 255 c-70 -18 -101 -34 -195 -98 -63 -43 -152 -132 -152 -151 0
-4 152 -6 338 -4 l337 3 53 29 c47 27 102 82 102 103 0 13 -117 87 -170 108
-61 24 -234 30 -313 10z"/>
<path d="M1868 122 c-16 -2 -28 -8 -28 -13 0 -5 91 -9 223 -9 122 0 744 -2
1382 -4 1109 -4 1507 2 1529 24 9 9 -3036 11 -3106 2z"/>
</g>
</svg>
